<svg width="24" height="24" viewBox="0 0 24 24" fill="none" xmlns="http://www.w3.org/2000/svg">
<g clip-path="url(#clip0_8353_18506)">
<rect width="24" height="24" fill="#0080BC"/>
<g clip-path="url(#clip1_8353_18506)">
<path d="M6.94667 10.5816C7.09523 10.8968 7.46662 11.5272 7.46662 11.5272L11.719 4.5L7.57803 7.39246C7.33663 7.55933 7.13236 7.78183 6.98381 8.04141C6.59385 8.83869 6.59385 9.76576 6.94667 10.5816Z" fill="#F6F6F6"/>
<path d="M5.27508 12.8806C5.36792 14.2342 6.05499 15.495 7.13202 16.3108L11.7187 19.4999C11.7187 19.4999 8.84041 15.3652 6.42638 11.249C6.18498 10.8225 6.01785 10.3405 5.94358 9.83985C5.90644 9.61736 5.90644 9.39486 5.94358 9.17236C5.88787 9.28361 5.75788 9.52465 5.75788 9.52465C5.51648 10.0253 5.34935 10.563 5.25651 11.1192C5.2008 11.7125 5.2008 12.3059 5.27508 12.8806Z" fill="#F6F6F6"/>
<path d="M16.9735 13.4371C16.825 13.1219 16.4536 12.4915 16.4536 12.4915L12.2012 19.5001L16.3607 16.6262C16.6021 16.4593 16.8064 16.2368 16.955 15.9772C17.3263 15.18 17.3449 14.2529 16.9735 13.4371Z" fill="#F6F6F6"/>
<path d="M18.6633 11.1193C18.5705 9.76576 17.8834 8.50494 16.8064 7.68912L12.2197 4.5C12.2197 4.5 15.098 8.63473 17.512 12.7509C17.7534 13.1774 17.9206 13.6595 17.9948 14.1601C18.032 14.3826 18.032 14.6051 17.9948 14.8276C18.0505 14.7163 18.1805 14.4753 18.1805 14.4753C18.4219 13.9747 18.5891 13.437 18.6819 12.8993C18.719 12.2874 18.719 11.7126 18.6633 11.1193Z" fill="#F6F6F6"/>
<path d="M6.98347 8.04141C7.13202 7.78183 7.31772 7.55933 7.57769 7.39246L11.7187 4.5L7.46627 11.5087C7.46627 11.5087 7.09488 10.8782 6.94633 10.563C6.59351 9.76576 6.59351 8.83869 6.98347 8.04141ZM5.27508 12.8807C5.36792 14.2342 6.05499 15.4951 7.13202 16.3109L11.7187 19.5C11.7187 19.5 8.84041 15.3653 6.42638 11.2491C6.18498 10.8226 6.01785 10.3405 5.94358 9.83993C5.90644 9.61743 5.90644 9.39493 5.94358 9.17244C5.88787 9.28368 5.75788 9.52472 5.75788 9.52472C5.51648 10.0253 5.34935 10.563 5.25651 11.1193C5.2008 11.7126 5.2008 12.3059 5.27508 12.8807ZM16.9738 13.437C16.8253 13.1218 16.4539 12.4913 16.4539 12.4913L12.2015 19.5L16.361 16.6261C16.6024 16.4592 16.8067 16.2367 16.9553 15.9771C17.3267 15.1799 17.3452 14.2528 16.9738 13.437ZM18.6451 11.1378C18.5522 9.7843 17.8652 8.52349 16.7881 7.70766L12.2201 4.5C12.2201 4.5 15.0983 8.63473 17.5124 12.7509C17.7538 13.1774 17.9209 13.6595 17.9952 14.1601C18.0323 14.3826 18.0323 14.6051 17.9952 14.8276C18.0509 14.7163 18.1809 14.4753 18.1809 14.4753C18.4223 13.9747 18.5894 13.437 18.6822 12.8993C18.7194 12.2874 18.7194 11.7126 18.6451 11.1378Z" fill="#F6F6F6"/>
</g>
</g>
<defs>
<clipPath id="clip0_8353_18506">
<rect width="24" height="24" rx="12" fill="white"/>
</clipPath>
<clipPath id="clip1_8353_18506">
<rect width="13.5" height="15" fill="white" transform="translate(5.21973 4.5)"/>
</clipPath>
</defs>
</svg>
